<mxfile host="app.diagrams.net" modified="2024-01-28T17:20:58.618Z" agent="Mozilla/5.0 (Windows NT 10.0; Win64; x64) AppleWebKit/537.36 (KHTML, like Gecko) Chrome/120.0.0.0 Safari/537.36" etag="l2yDhngGnUr2L89K8yJP" version="22.1.22" type="google">
  <diagram name="Page-1" id="7_CBLadT81Eo8E62sStW">
    <mxGraphModel grid="1" page="1" gridSize="10" guides="1" tooltips="1" connect="1" arrows="1" fold="1" pageScale="1" pageWidth="850" pageHeight="1100" math="0" shadow="0">
      <root>
        <mxCell id="0" />
        <mxCell id="1" parent="0" />
        <mxCell id="lhP6wnL_BwwjvoR07iWc-1" value="MOVIE" style="whiteSpace=wrap;html=1;align=center;" vertex="1" parent="1">
          <mxGeometry x="180" y="200" width="100" height="40" as="geometry" />
        </mxCell>
        <mxCell id="lhP6wnL_BwwjvoR07iWc-2" value="id" style="ellipse;whiteSpace=wrap;html=1;align=center;fontStyle=4;" vertex="1" parent="1">
          <mxGeometry x="100" y="120" width="100" height="40" as="geometry" />
        </mxCell>
        <mxCell id="lhP6wnL_BwwjvoR07iWc-4" value="name" style="ellipse;whiteSpace=wrap;html=1;align=center;" vertex="1" parent="1">
          <mxGeometry x="220" y="120" width="100" height="40" as="geometry" />
        </mxCell>
        <mxCell id="lhP6wnL_BwwjvoR07iWc-5" value="premiere_city" style="ellipse;whiteSpace=wrap;html=1;align=center;" vertex="1" parent="1">
          <mxGeometry x="300" y="170" width="100" height="40" as="geometry" />
        </mxCell>
        <mxCell id="lhP6wnL_BwwjvoR07iWc-7" value="country_of_origin" style="ellipse;whiteSpace=wrap;html=1;align=center;" vertex="1" parent="1">
          <mxGeometry x="80" y="265" width="110" height="50" as="geometry" />
        </mxCell>
        <mxCell id="lhP6wnL_BwwjvoR07iWc-8" value="production_company" style="ellipse;whiteSpace=wrap;html=1;align=center;" vertex="1" parent="1">
          <mxGeometry x="20" y="180" width="130" height="50" as="geometry" />
        </mxCell>
        <mxCell id="lhP6wnL_BwwjvoR07iWc-9" value="" style="endArrow=none;html=1;rounded=0;exitX=1;exitY=0.5;exitDx=0;exitDy=0;entryX=0;entryY=0.5;entryDx=0;entryDy=0;" edge="1" parent="1" source="lhP6wnL_BwwjvoR07iWc-1" target="lhP6wnL_BwwjvoR07iWc-5">
          <mxGeometry relative="1" as="geometry">
            <mxPoint x="340" y="290" as="sourcePoint" />
            <mxPoint x="500" y="290" as="targetPoint" />
          </mxGeometry>
        </mxCell>
        <mxCell id="lhP6wnL_BwwjvoR07iWc-11" value="" style="endArrow=none;html=1;rounded=0;exitX=0.605;exitY=0.025;exitDx=0;exitDy=0;entryX=0.309;entryY=1.022;entryDx=0;entryDy=0;exitPerimeter=0;entryPerimeter=0;" edge="1" parent="1" source="lhP6wnL_BwwjvoR07iWc-7" target="lhP6wnL_BwwjvoR07iWc-1">
          <mxGeometry relative="1" as="geometry">
            <mxPoint x="220" y="260" as="sourcePoint" />
            <mxPoint x="240" y="250" as="targetPoint" />
          </mxGeometry>
        </mxCell>
        <mxCell id="lhP6wnL_BwwjvoR07iWc-12" value="" style="endArrow=none;html=1;rounded=0;exitX=0.624;exitY=0.008;exitDx=0;exitDy=0;entryX=0.373;entryY=0.995;entryDx=0;entryDy=0;exitPerimeter=0;entryPerimeter=0;" edge="1" parent="1" source="lhP6wnL_BwwjvoR07iWc-1" target="lhP6wnL_BwwjvoR07iWc-4">
          <mxGeometry relative="1" as="geometry">
            <mxPoint x="250" y="170" as="sourcePoint" />
            <mxPoint x="270" y="160" as="targetPoint" />
          </mxGeometry>
        </mxCell>
        <mxCell id="lhP6wnL_BwwjvoR07iWc-13" value="" style="endArrow=none;html=1;rounded=0;exitX=0.171;exitY=0.008;exitDx=0;exitDy=0;entryX=0.693;entryY=0.968;entryDx=0;entryDy=0;exitPerimeter=0;entryPerimeter=0;" edge="1" parent="1" source="lhP6wnL_BwwjvoR07iWc-1" target="lhP6wnL_BwwjvoR07iWc-2">
          <mxGeometry relative="1" as="geometry">
            <mxPoint x="170" y="170" as="sourcePoint" />
            <mxPoint x="190" y="160" as="targetPoint" />
          </mxGeometry>
        </mxCell>
        <mxCell id="lhP6wnL_BwwjvoR07iWc-14" value="" style="endArrow=none;html=1;rounded=0;exitX=0.973;exitY=0.38;exitDx=0;exitDy=0;exitPerimeter=0;entryX=0;entryY=0.635;entryDx=0;entryDy=0;entryPerimeter=0;" edge="1" parent="1" source="lhP6wnL_BwwjvoR07iWc-8" target="lhP6wnL_BwwjvoR07iWc-1">
          <mxGeometry relative="1" as="geometry">
            <mxPoint x="160" y="190" as="sourcePoint" />
            <mxPoint x="180" y="219" as="targetPoint" />
          </mxGeometry>
        </mxCell>
        <mxCell id="lhP6wnL_BwwjvoR07iWc-16" value="ACTOR" style="whiteSpace=wrap;html=1;align=center;" vertex="1" parent="1">
          <mxGeometry x="710" y="205" width="100" height="40" as="geometry" />
        </mxCell>
        <mxCell id="lhP6wnL_BwwjvoR07iWc-17" value="id" style="ellipse;whiteSpace=wrap;html=1;align=center;fontStyle=4;" vertex="1" parent="1">
          <mxGeometry x="600" y="170" width="100" height="40" as="geometry" />
        </mxCell>
        <mxCell id="lhP6wnL_BwwjvoR07iWc-18" value="first_name" style="ellipse;whiteSpace=wrap;html=1;align=center;" vertex="1" parent="1">
          <mxGeometry x="710" y="130" width="100" height="40" as="geometry" />
        </mxCell>
        <mxCell id="lhP6wnL_BwwjvoR07iWc-19" value="last_name" style="ellipse;whiteSpace=wrap;html=1;align=center;" vertex="1" parent="1">
          <mxGeometry x="830" y="160" width="100" height="40" as="geometry" />
        </mxCell>
        <mxCell id="lhP6wnL_BwwjvoR07iWc-20" value="nickname" style="ellipse;whiteSpace=wrap;html=1;align=center;" vertex="1" parent="1">
          <mxGeometry x="840" y="230" width="100" height="40" as="geometry" />
        </mxCell>
        <mxCell id="lhP6wnL_BwwjvoR07iWc-21" value="birth_date" style="ellipse;whiteSpace=wrap;html=1;align=center;" vertex="1" parent="1">
          <mxGeometry x="740" y="275" width="100" height="40" as="geometry" />
        </mxCell>
        <mxCell id="lhP6wnL_BwwjvoR07iWc-22" value="agent_code" style="ellipse;whiteSpace=wrap;html=1;align=center;" vertex="1" parent="1">
          <mxGeometry x="600" y="255" width="100" height="40" as="geometry" />
        </mxCell>
        <mxCell id="lhP6wnL_BwwjvoR07iWc-23" value="" style="endArrow=none;html=1;rounded=0;entryX=0.44;entryY=0.968;entryDx=0;entryDy=0;entryPerimeter=0;exitX=0.5;exitY=0;exitDx=0;exitDy=0;" edge="1" parent="1" source="lhP6wnL_BwwjvoR07iWc-16" target="lhP6wnL_BwwjvoR07iWc-18">
          <mxGeometry relative="1" as="geometry">
            <mxPoint x="610" y="200" as="sourcePoint" />
            <mxPoint x="770" y="200" as="targetPoint" />
          </mxGeometry>
        </mxCell>
        <mxCell id="lhP6wnL_BwwjvoR07iWc-24" value="" style="endArrow=none;html=1;rounded=0;entryX=0.044;entryY=0.728;entryDx=0;entryDy=0;entryPerimeter=0;exitX=0.988;exitY=0.128;exitDx=0;exitDy=0;exitPerimeter=0;" edge="1" parent="1" source="lhP6wnL_BwwjvoR07iWc-16" target="lhP6wnL_BwwjvoR07iWc-19">
          <mxGeometry relative="1" as="geometry">
            <mxPoint x="810" y="180" as="sourcePoint" />
            <mxPoint x="814" y="139" as="targetPoint" />
          </mxGeometry>
        </mxCell>
        <mxCell id="lhP6wnL_BwwjvoR07iWc-25" value="" style="endArrow=none;html=1;rounded=0;entryX=0.993;entryY=0.902;entryDx=0;entryDy=0;entryPerimeter=0;exitX=0.017;exitY=0.378;exitDx=0;exitDy=0;exitPerimeter=0;" edge="1" parent="1" source="lhP6wnL_BwwjvoR07iWc-20" target="lhP6wnL_BwwjvoR07iWc-16">
          <mxGeometry relative="1" as="geometry">
            <mxPoint x="810" y="250" as="sourcePoint" />
            <mxPoint x="814" y="209" as="targetPoint" />
          </mxGeometry>
        </mxCell>
        <mxCell id="lhP6wnL_BwwjvoR07iWc-26" value="" style="endArrow=none;html=1;rounded=0;entryX=0.881;entryY=0.955;entryDx=0;entryDy=0;entryPerimeter=0;exitX=0.449;exitY=0.008;exitDx=0;exitDy=0;exitPerimeter=0;" edge="1" parent="1" source="lhP6wnL_BwwjvoR07iWc-21" target="lhP6wnL_BwwjvoR07iWc-16">
          <mxGeometry relative="1" as="geometry">
            <mxPoint x="790" y="260" as="sourcePoint" />
            <mxPoint x="794" y="219" as="targetPoint" />
          </mxGeometry>
        </mxCell>
        <mxCell id="lhP6wnL_BwwjvoR07iWc-27" value="" style="endArrow=none;html=1;rounded=0;entryX=0.124;entryY=1.022;entryDx=0;entryDy=0;entryPerimeter=0;exitX=0.789;exitY=0.108;exitDx=0;exitDy=0;exitPerimeter=0;" edge="1" parent="1" source="lhP6wnL_BwwjvoR07iWc-22" target="lhP6wnL_BwwjvoR07iWc-16">
          <mxGeometry relative="1" as="geometry">
            <mxPoint x="730" y="260" as="sourcePoint" />
            <mxPoint x="734" y="219" as="targetPoint" />
          </mxGeometry>
        </mxCell>
        <mxCell id="lhP6wnL_BwwjvoR07iWc-28" value="" style="endArrow=none;html=1;rounded=0;entryX=0.915;entryY=0.798;entryDx=0;entryDy=0;entryPerimeter=0;exitX=0.007;exitY=0.382;exitDx=0;exitDy=0;exitPerimeter=0;" edge="1" parent="1" source="lhP6wnL_BwwjvoR07iWc-16" target="lhP6wnL_BwwjvoR07iWc-17">
          <mxGeometry relative="1" as="geometry">
            <mxPoint x="690" y="220" as="sourcePoint" />
            <mxPoint x="694" y="179" as="targetPoint" />
          </mxGeometry>
        </mxCell>
        <mxCell id="lhP6wnL_BwwjvoR07iWc-29" value="acts" style="shape=rhombus;perimeter=rhombusPerimeter;whiteSpace=wrap;html=1;align=center;" vertex="1" parent="1">
          <mxGeometry x="440" y="220" width="70" height="30" as="geometry" />
        </mxCell>
        <mxCell id="lhP6wnL_BwwjvoR07iWc-30" value="" style="endArrow=none;html=1;rounded=0;exitX=0.997;exitY=0.875;exitDx=0;exitDy=0;exitPerimeter=0;entryX=0.082;entryY=0.429;entryDx=0;entryDy=0;entryPerimeter=0;" edge="1" parent="1" source="lhP6wnL_BwwjvoR07iWc-1" target="lhP6wnL_BwwjvoR07iWc-29">
          <mxGeometry relative="1" as="geometry">
            <mxPoint x="440" y="200" as="sourcePoint" />
            <mxPoint x="600" y="200" as="targetPoint" />
          </mxGeometry>
        </mxCell>
        <mxCell id="lhP6wnL_BwwjvoR07iWc-31" value="" style="endArrow=none;html=1;rounded=0;exitX=0.992;exitY=0.888;exitDx=0;exitDy=0;exitPerimeter=0;entryX=0.09;entryY=0.607;entryDx=0;entryDy=0;entryPerimeter=0;" edge="1" parent="1" source="lhP6wnL_BwwjvoR07iWc-1" target="lhP6wnL_BwwjvoR07iWc-29">
          <mxGeometry relative="1" as="geometry">
            <mxPoint x="390" y="240" as="sourcePoint" />
            <mxPoint x="566" y="238" as="targetPoint" />
          </mxGeometry>
        </mxCell>
        <mxCell id="lhP6wnL_BwwjvoR07iWc-32" value="" style="endArrow=none;html=1;rounded=0;exitX=0.912;exitY=0.429;exitDx=0;exitDy=0;exitPerimeter=0;entryX=0.023;entryY=0.643;entryDx=0;entryDy=0;entryPerimeter=0;" edge="1" parent="1" source="lhP6wnL_BwwjvoR07iWc-29" target="lhP6wnL_BwwjvoR07iWc-16">
          <mxGeometry relative="1" as="geometry">
            <mxPoint x="550" y="220" as="sourcePoint" />
            <mxPoint x="726" y="218" as="targetPoint" />
          </mxGeometry>
        </mxCell>
        <mxCell id="lhP6wnL_BwwjvoR07iWc-33" value="" style="endArrow=none;html=1;rounded=0;exitX=0.92;exitY=0.624;exitDx=0;exitDy=0;exitPerimeter=0;entryX=0.001;entryY=0.897;entryDx=0;entryDy=0;entryPerimeter=0;" edge="1" parent="1" source="lhP6wnL_BwwjvoR07iWc-29" target="lhP6wnL_BwwjvoR07iWc-16">
          <mxGeometry relative="1" as="geometry">
            <mxPoint x="570" y="260" as="sourcePoint" />
            <mxPoint x="746" y="258" as="targetPoint" />
          </mxGeometry>
        </mxCell>
        <mxCell id="lhP6wnL_BwwjvoR07iWc-35" value="M" style="text;html=1;strokeColor=none;fillColor=none;align=center;verticalAlign=middle;whiteSpace=wrap;rounded=0;" vertex="1" parent="1">
          <mxGeometry x="370" y="220" width="30" height="10" as="geometry" />
        </mxCell>
        <mxCell id="lhP6wnL_BwwjvoR07iWc-36" value="N" style="text;html=1;strokeColor=none;fillColor=none;align=center;verticalAlign=middle;whiteSpace=wrap;rounded=0;" vertex="1" parent="1">
          <mxGeometry x="560" y="220" width="30" height="10" as="geometry" />
        </mxCell>
        <mxCell id="lhP6wnL_BwwjvoR07iWc-39" value="salary" style="ellipse;whiteSpace=wrap;html=1;align=center;" vertex="1" parent="1">
          <mxGeometry x="450" y="120" width="80" height="30" as="geometry" />
        </mxCell>
        <mxCell id="lhP6wnL_BwwjvoR07iWc-40" value="" style="endArrow=none;html=1;rounded=0;exitX=0.59;exitY=0.073;exitDx=0;exitDy=0;entryX=0.412;entryY=1.007;entryDx=0;entryDy=0;exitPerimeter=0;entryPerimeter=0;" edge="1" parent="1" source="lhP6wnL_BwwjvoR07iWc-29" target="lhP6wnL_BwwjvoR07iWc-39">
          <mxGeometry relative="1" as="geometry">
            <mxPoint x="490" y="180" as="sourcePoint" />
            <mxPoint x="510" y="150" as="targetPoint" />
          </mxGeometry>
        </mxCell>
        <mxCell id="lhP6wnL_BwwjvoR07iWc-41" value="FILM" style="whiteSpace=wrap;html=1;align=center;" vertex="1" parent="1">
          <mxGeometry x="360" y="480" width="100" height="40" as="geometry" />
        </mxCell>
        <mxCell id="lhP6wnL_BwwjvoR07iWc-42" value="TV-SERIES" style="whiteSpace=wrap;html=1;align=center;" vertex="1" parent="1">
          <mxGeometry x="-170" y="390" width="100" height="40" as="geometry" />
        </mxCell>
        <mxCell id="lhP6wnL_BwwjvoR07iWc-43" value="id" style="ellipse;whiteSpace=wrap;html=1;align=center;fontStyle=4;" vertex="1" parent="1">
          <mxGeometry x="230" y="425" width="100" height="40" as="geometry" />
        </mxCell>
        <mxCell id="lhP6wnL_BwwjvoR07iWc-49" value="" style="endArrow=none;html=1;rounded=0;exitX=0.597;exitY=0.998;exitDx=0;exitDy=0;exitPerimeter=0;entryX=0.137;entryY=0.008;entryDx=0;entryDy=0;entryPerimeter=0;" edge="1" parent="1" source="lhP6wnL_BwwjvoR07iWc-43" target="lhP6wnL_BwwjvoR07iWc-41">
          <mxGeometry relative="1" as="geometry">
            <mxPoint x="560" y="460" as="sourcePoint" />
            <mxPoint x="720" y="460" as="targetPoint" />
          </mxGeometry>
        </mxCell>
        <mxCell id="lhP6wnL_BwwjvoR07iWc-50" value="" style="endArrow=none;html=1;rounded=0;exitX=1;exitY=0.5;exitDx=0;exitDy=0;entryX=0;entryY=0.5;entryDx=0;entryDy=0;" edge="1" parent="1" source="lhP6wnL_BwwjvoR07iWc-41" target="lhP6wnL_BwwjvoR07iWc-267">
          <mxGeometry relative="1" as="geometry">
            <mxPoint x="450" y="450" as="sourcePoint" />
            <mxPoint x="439.20000000000005" y="441.9200000000001" as="targetPoint" />
          </mxGeometry>
        </mxCell>
        <mxCell id="lhP6wnL_BwwjvoR07iWc-52" value="" style="endArrow=none;html=1;rounded=0;exitX=0.5;exitY=0;exitDx=0;exitDy=0;entryX=0.143;entryY=1.008;entryDx=0;entryDy=0;entryPerimeter=0;" edge="1" parent="1" source="O87DbH4CyXOENve4v9fQ-15" target="lhP6wnL_BwwjvoR07iWc-41">
          <mxGeometry relative="1" as="geometry">
            <mxPoint x="359.1999999999998" y="561.5999999999999" as="sourcePoint" />
            <mxPoint x="334" y="550" as="targetPoint" />
          </mxGeometry>
        </mxCell>
        <mxCell id="lhP6wnL_BwwjvoR07iWc-54" value="is" style="shape=rhombus;perimeter=rhombusPerimeter;whiteSpace=wrap;html=1;align=center;" vertex="1" parent="1">
          <mxGeometry x="-90" y="260" width="50" height="30" as="geometry" />
        </mxCell>
        <mxCell id="lhP6wnL_BwwjvoR07iWc-55" value="" style="endArrow=none;html=1;rounded=0;entryX=0.363;entryY=0.918;entryDx=0;entryDy=0;entryPerimeter=0;exitX=0.425;exitY=-0.008;exitDx=0;exitDy=0;exitPerimeter=0;" edge="1" parent="1" source="lhP6wnL_BwwjvoR07iWc-42" target="lhP6wnL_BwwjvoR07iWc-54">
          <mxGeometry relative="1" as="geometry">
            <mxPoint x="10" y="460" as="sourcePoint" />
            <mxPoint x="20" y="321" as="targetPoint" />
          </mxGeometry>
        </mxCell>
        <mxCell id="lhP6wnL_BwwjvoR07iWc-56" value="" style="endArrow=none;html=1;rounded=0;entryX=0.416;entryY=0.936;entryDx=0;entryDy=0;entryPerimeter=0;exitX=0.447;exitY=0.005;exitDx=0;exitDy=0;exitPerimeter=0;" edge="1" parent="1" source="lhP6wnL_BwwjvoR07iWc-42" target="lhP6wnL_BwwjvoR07iWc-54">
          <mxGeometry relative="1" as="geometry">
            <mxPoint x="20" y="460" as="sourcePoint" />
            <mxPoint x="60" y="331" as="targetPoint" />
          </mxGeometry>
        </mxCell>
        <mxCell id="lhP6wnL_BwwjvoR07iWc-57" value="" style="endArrow=none;html=1;rounded=0;exitX=0.427;exitY=0.064;exitDx=0;exitDy=0;exitPerimeter=0;entryX=0.065;entryY=0.995;entryDx=0;entryDy=0;entryPerimeter=0;" edge="1" parent="1" source="lhP6wnL_BwwjvoR07iWc-54" target="lhP6wnL_BwwjvoR07iWc-1">
          <mxGeometry relative="1" as="geometry">
            <mxPoint x="70" y="280" as="sourcePoint" />
            <mxPoint x="80" y="241" as="targetPoint" />
          </mxGeometry>
        </mxCell>
        <mxCell id="lhP6wnL_BwwjvoR07iWc-58" value="1" style="text;html=1;strokeColor=none;fillColor=none;align=center;verticalAlign=middle;whiteSpace=wrap;rounded=0;" vertex="1" parent="1">
          <mxGeometry x="-20" y="240" width="30" height="10" as="geometry" />
        </mxCell>
        <mxCell id="lhP6wnL_BwwjvoR07iWc-59" value="1" style="text;html=1;strokeColor=none;fillColor=none;align=center;verticalAlign=middle;whiteSpace=wrap;rounded=0;" vertex="1" parent="1">
          <mxGeometry x="95" y="485" width="30" height="10" as="geometry" />
        </mxCell>
        <mxCell id="lhP6wnL_BwwjvoR07iWc-60" value="id" style="ellipse;whiteSpace=wrap;html=1;align=center;fontStyle=4;" vertex="1" parent="1">
          <mxGeometry x="-260" y="315" width="100" height="40" as="geometry" />
        </mxCell>
        <mxCell id="lhP6wnL_BwwjvoR07iWc-61" value="TV-channel" style="ellipse;whiteSpace=wrap;html=1;align=center;" vertex="1" parent="1">
          <mxGeometry x="-85" y="330" width="100" height="40" as="geometry" />
        </mxCell>
        <mxCell id="lhP6wnL_BwwjvoR07iWc-62" value="number_of_episodes" style="ellipse;whiteSpace=wrap;html=1;align=center;" vertex="1" parent="1">
          <mxGeometry x="-130" y="450" width="130" height="40" as="geometry" />
        </mxCell>
        <mxCell id="lhP6wnL_BwwjvoR07iWc-63" value="number_of_seasons" style="ellipse;whiteSpace=wrap;html=1;align=center;" vertex="1" parent="1">
          <mxGeometry x="-275" y="440" width="130" height="40" as="geometry" />
        </mxCell>
        <mxCell id="lhP6wnL_BwwjvoR07iWc-64" value="" style="endArrow=none;html=1;rounded=0;exitX=0.135;exitY=0.008;exitDx=0;exitDy=0;exitPerimeter=0;entryX=0.709;entryY=0.948;entryDx=0;entryDy=0;entryPerimeter=0;" edge="1" parent="1" source="lhP6wnL_BwwjvoR07iWc-42" target="lhP6wnL_BwwjvoR07iWc-60">
          <mxGeometry relative="1" as="geometry">
            <mxPoint x="-90" y="470" as="sourcePoint" />
            <mxPoint x="-80" y="431" as="targetPoint" />
          </mxGeometry>
        </mxCell>
        <mxCell id="lhP6wnL_BwwjvoR07iWc-65" value="" style="endArrow=none;html=1;rounded=0;exitX=0.844;exitY=-0.005;exitDx=0;exitDy=0;exitPerimeter=0;entryX=0.202;entryY=0.895;entryDx=0;entryDy=0;entryPerimeter=0;" edge="1" parent="1" source="lhP6wnL_BwwjvoR07iWc-42" target="lhP6wnL_BwwjvoR07iWc-61">
          <mxGeometry relative="1" as="geometry">
            <mxPoint x="30" y="450" as="sourcePoint" />
            <mxPoint x="40" y="411" as="targetPoint" />
          </mxGeometry>
        </mxCell>
        <mxCell id="lhP6wnL_BwwjvoR07iWc-66" value="" style="endArrow=none;html=1;rounded=0;exitX=0.361;exitY=0.015;exitDx=0;exitDy=0;exitPerimeter=0;entryX=0.876;entryY=1.008;entryDx=0;entryDy=0;entryPerimeter=0;" edge="1" parent="1" source="lhP6wnL_BwwjvoR07iWc-62" target="lhP6wnL_BwwjvoR07iWc-42">
          <mxGeometry relative="1" as="geometry">
            <mxPoint x="70" y="510" as="sourcePoint" />
            <mxPoint x="80" y="471" as="targetPoint" />
          </mxGeometry>
        </mxCell>
        <mxCell id="lhP6wnL_BwwjvoR07iWc-67" value="" style="endArrow=none;html=1;rounded=0;exitX=0.651;exitY=0.045;exitDx=0;exitDy=0;entryX=0.188;entryY=1.022;entryDx=0;entryDy=0;entryPerimeter=0;exitPerimeter=0;" edge="1" parent="1" source="lhP6wnL_BwwjvoR07iWc-63" target="lhP6wnL_BwwjvoR07iWc-42">
          <mxGeometry relative="1" as="geometry">
            <mxPoint x="-70" y="510" as="sourcePoint" />
            <mxPoint x="-60" y="471" as="targetPoint" />
          </mxGeometry>
        </mxCell>
        <mxCell id="lhP6wnL_BwwjvoR07iWc-68" value="is" style="shape=rhombus;perimeter=rhombusPerimeter;whiteSpace=wrap;html=1;align=center;" vertex="1" parent="1">
          <mxGeometry x="265" y="350" width="50" height="30" as="geometry" />
        </mxCell>
        <mxCell id="lhP6wnL_BwwjvoR07iWc-69" value="1" style="text;html=1;strokeColor=none;fillColor=none;align=center;verticalAlign=middle;whiteSpace=wrap;rounded=0;" vertex="1" parent="1">
          <mxGeometry x="-120" y="305" width="30" height="10" as="geometry" />
        </mxCell>
        <mxCell id="lhP6wnL_BwwjvoR07iWc-70" value="" style="endArrow=none;html=1;rounded=0;exitX=0.668;exitY=1.008;exitDx=0;exitDy=0;exitPerimeter=0;entryX=0.408;entryY=0.091;entryDx=0;entryDy=0;entryPerimeter=0;" edge="1" parent="1" source="lhP6wnL_BwwjvoR07iWc-1" target="lhP6wnL_BwwjvoR07iWc-68">
          <mxGeometry relative="1" as="geometry">
            <mxPoint x="270" y="300" as="sourcePoint" />
            <mxPoint x="426" y="228" as="targetPoint" />
          </mxGeometry>
        </mxCell>
        <mxCell id="lhP6wnL_BwwjvoR07iWc-71" value="" style="endArrow=none;html=1;rounded=0;exitX=0.5;exitY=1;exitDx=0;exitDy=0;entryX=0.452;entryY=0.008;entryDx=0;entryDy=0;entryPerimeter=0;" edge="1" parent="1" source="lhP6wnL_BwwjvoR07iWc-68" target="lhP6wnL_BwwjvoR07iWc-41">
          <mxGeometry relative="1" as="geometry">
            <mxPoint x="390" y="340" as="sourcePoint" />
            <mxPoint x="390" y="450" as="targetPoint" />
          </mxGeometry>
        </mxCell>
        <mxCell id="lhP6wnL_BwwjvoR07iWc-72" value="" style="endArrow=none;html=1;rounded=0;exitX=0;exitY=1;exitDx=0;exitDy=0;entryX=0.425;entryY=0.008;entryDx=0;entryDy=0;entryPerimeter=0;" edge="1" parent="1" source="lhP6wnL_BwwjvoR07iWc-68" target="lhP6wnL_BwwjvoR07iWc-41">
          <mxGeometry relative="1" as="geometry">
            <mxPoint x="400" y="360" as="sourcePoint" />
            <mxPoint x="380" y="450" as="targetPoint" />
          </mxGeometry>
        </mxCell>
        <mxCell id="lhP6wnL_BwwjvoR07iWc-73" value="1" style="text;html=1;strokeColor=none;fillColor=none;align=center;verticalAlign=middle;whiteSpace=wrap;rounded=0;" vertex="1" parent="1">
          <mxGeometry x="270" y="295" width="30" height="10" as="geometry" />
        </mxCell>
        <mxCell id="lhP6wnL_BwwjvoR07iWc-75" value="OSCAR" style="whiteSpace=wrap;html=1;align=center;" vertex="1" parent="1">
          <mxGeometry x="660" y="420" width="100" height="40" as="geometry" />
        </mxCell>
        <mxCell id="lhP6wnL_BwwjvoR07iWc-210" value="id" style="ellipse;whiteSpace=wrap;html=1;align=center;fontStyle=4;" vertex="1" parent="1">
          <mxGeometry x="700" y="365" width="100" height="40" as="geometry" />
        </mxCell>
        <mxCell id="lhP6wnL_BwwjvoR07iWc-211" value="role" style="ellipse;whiteSpace=wrap;html=1;align=center;" vertex="1" parent="1">
          <mxGeometry x="780" y="430" width="100" height="40" as="geometry" />
        </mxCell>
        <mxCell id="lhP6wnL_BwwjvoR07iWc-212" value="year" style="ellipse;whiteSpace=wrap;html=1;align=center;" vertex="1" parent="1">
          <mxGeometry x="660" y="470" width="100" height="40" as="geometry" />
        </mxCell>
        <mxCell id="lhP6wnL_BwwjvoR07iWc-213" value="" style="endArrow=none;html=1;rounded=0;exitX=0.341;exitY=0.972;exitDx=0;exitDy=0;exitPerimeter=0;entryX=0.88;entryY=-0.005;entryDx=0;entryDy=0;entryPerimeter=0;" edge="1" parent="1" source="lhP6wnL_BwwjvoR07iWc-210" target="lhP6wnL_BwwjvoR07iWc-75">
          <mxGeometry relative="1" as="geometry">
            <mxPoint x="850" y="430" as="sourcePoint" />
            <mxPoint x="854" y="459" as="targetPoint" />
          </mxGeometry>
        </mxCell>
        <mxCell id="lhP6wnL_BwwjvoR07iWc-214" value="" style="endArrow=none;html=1;rounded=0;exitX=0.999;exitY=0.402;exitDx=0;exitDy=0;exitPerimeter=0;entryX=0.209;entryY=0.082;entryDx=0;entryDy=0;entryPerimeter=0;" edge="1" parent="1" source="lhP6wnL_BwwjvoR07iWc-75" target="lhP6wnL_BwwjvoR07iWc-211">
          <mxGeometry relative="1" as="geometry">
            <mxPoint x="1000" y="490" as="sourcePoint" />
            <mxPoint x="1004" y="519" as="targetPoint" />
          </mxGeometry>
        </mxCell>
        <mxCell id="lhP6wnL_BwwjvoR07iWc-215" value="" style="endArrow=none;html=1;rounded=0;exitX=0.807;exitY=0.988;exitDx=0;exitDy=0;exitPerimeter=0;entryX=0.78;entryY=0.103;entryDx=0;entryDy=0;entryPerimeter=0;" edge="1" parent="1" source="lhP6wnL_BwwjvoR07iWc-75" target="lhP6wnL_BwwjvoR07iWc-212">
          <mxGeometry relative="1" as="geometry">
            <mxPoint x="890" y="530" as="sourcePoint" />
            <mxPoint x="894" y="559" as="targetPoint" />
          </mxGeometry>
        </mxCell>
        <mxCell id="lhP6wnL_BwwjvoR07iWc-216" value="won" style="shape=rhombus;perimeter=rhombusPerimeter;whiteSpace=wrap;html=1;align=center;" vertex="1" parent="1">
          <mxGeometry x="600" y="350" width="60" height="30" as="geometry" />
        </mxCell>
        <mxCell id="lhP6wnL_BwwjvoR07iWc-217" value="" style="endArrow=none;html=1;rounded=0;exitX=0.435;exitY=0.99;exitDx=0;exitDy=0;exitPerimeter=0;entryX=0.42;entryY=0.047;entryDx=0;entryDy=0;entryPerimeter=0;" edge="1" parent="1" source="lhP6wnL_BwwjvoR07iWc-16" target="lhP6wnL_BwwjvoR07iWc-216">
          <mxGeometry relative="1" as="geometry">
            <mxPoint x="700" y="370" as="sourcePoint" />
            <mxPoint x="704" y="399" as="targetPoint" />
          </mxGeometry>
        </mxCell>
        <mxCell id="lhP6wnL_BwwjvoR07iWc-218" value="" style="endArrow=none;html=1;rounded=0;exitX=0.687;exitY=0.811;exitDx=0;exitDy=0;exitPerimeter=0;entryX=0.171;entryY=0.008;entryDx=0;entryDy=0;entryPerimeter=0;" edge="1" parent="1" source="lhP6wnL_BwwjvoR07iWc-216" target="lhP6wnL_BwwjvoR07iWc-75">
          <mxGeometry relative="1" as="geometry">
            <mxPoint x="850" y="370" as="sourcePoint" />
            <mxPoint x="854" y="399" as="targetPoint" />
          </mxGeometry>
        </mxCell>
        <mxCell id="lhP6wnL_BwwjvoR07iWc-219" value="" style="endArrow=none;html=1;rounded=0;exitX=0.607;exitY=0.882;exitDx=0;exitDy=0;exitPerimeter=0;entryX=0.075;entryY=-0.005;entryDx=0;entryDy=0;entryPerimeter=0;" edge="1" parent="1" source="lhP6wnL_BwwjvoR07iWc-216" target="lhP6wnL_BwwjvoR07iWc-75">
          <mxGeometry relative="1" as="geometry">
            <mxPoint x="870" y="370" as="sourcePoint" />
            <mxPoint x="874" y="399" as="targetPoint" />
          </mxGeometry>
        </mxCell>
        <mxCell id="lhP6wnL_BwwjvoR07iWc-220" value="M" style="text;html=1;strokeColor=none;fillColor=none;align=center;verticalAlign=middle;whiteSpace=wrap;rounded=0;" vertex="1" parent="1">
          <mxGeometry x="650" y="380" width="30" height="10" as="geometry" />
        </mxCell>
        <mxCell id="lhP6wnL_BwwjvoR07iWc-221" value="1" style="text;html=1;strokeColor=none;fillColor=none;align=center;verticalAlign=middle;whiteSpace=wrap;rounded=0;" vertex="1" parent="1">
          <mxGeometry x="630" y="320" width="30" height="10" as="geometry" />
        </mxCell>
        <mxCell id="lhP6wnL_BwwjvoR07iWc-223" value="won" style="shape=rhombus;perimeter=rhombusPerimeter;whiteSpace=wrap;html=1;align=center;" vertex="1" parent="1">
          <mxGeometry x="545" y="440" width="60" height="30" as="geometry" />
        </mxCell>
        <mxCell id="lhP6wnL_BwwjvoR07iWc-224" value="" style="endArrow=none;html=1;rounded=0;exitX=0.996;exitY=0.395;exitDx=0;exitDy=0;exitPerimeter=0;entryX=0.1;entryY=0.384;entryDx=0;entryDy=0;entryPerimeter=0;" edge="1" parent="1" source="lhP6wnL_BwwjvoR07iWc-41" target="lhP6wnL_BwwjvoR07iWc-223">
          <mxGeometry relative="1" as="geometry">
            <mxPoint x="530" y="490" as="sourcePoint" />
            <mxPoint x="541" y="606" as="targetPoint" />
          </mxGeometry>
        </mxCell>
        <mxCell id="lhP6wnL_BwwjvoR07iWc-225" value="" style="endArrow=none;html=1;rounded=0;exitX=0.011;exitY=0.648;exitDx=0;exitDy=0;exitPerimeter=0;entryX=0.909;entryY=0.669;entryDx=0;entryDy=0;entryPerimeter=0;" edge="1" parent="1" source="lhP6wnL_BwwjvoR07iWc-75" target="lhP6wnL_BwwjvoR07iWc-223">
          <mxGeometry relative="1" as="geometry">
            <mxPoint x="720" y="470" as="sourcePoint" />
            <mxPoint x="731" y="586" as="targetPoint" />
          </mxGeometry>
        </mxCell>
        <mxCell id="lhP6wnL_BwwjvoR07iWc-226" value="" style="endArrow=none;html=1;rounded=0;exitX=0.838;exitY=0.313;exitDx=0;exitDy=0;exitPerimeter=0;entryX=-0.011;entryY=0.395;entryDx=0;entryDy=0;entryPerimeter=0;" edge="1" parent="1" source="lhP6wnL_BwwjvoR07iWc-223" target="lhP6wnL_BwwjvoR07iWc-75">
          <mxGeometry relative="1" as="geometry">
            <mxPoint x="730" y="470" as="sourcePoint" />
            <mxPoint x="741" y="586" as="targetPoint" />
          </mxGeometry>
        </mxCell>
        <mxCell id="lhP6wnL_BwwjvoR07iWc-227" value="M" style="text;html=1;strokeColor=none;fillColor=none;align=center;verticalAlign=middle;whiteSpace=wrap;rounded=0;" vertex="1" parent="1">
          <mxGeometry x="620" y="460" width="30" height="10" as="geometry" />
        </mxCell>
        <mxCell id="lhP6wnL_BwwjvoR07iWc-228" value="1" style="text;html=1;strokeColor=none;fillColor=none;align=center;verticalAlign=middle;whiteSpace=wrap;rounded=0;" vertex="1" parent="1">
          <mxGeometry x="515" y="470" width="30" height="10" as="geometry" />
        </mxCell>
        <mxCell id="lhP6wnL_BwwjvoR07iWc-229" value="DIRECTOR" style="whiteSpace=wrap;html=1;align=center;" vertex="1" parent="1">
          <mxGeometry x="350" y="870" width="100" height="40" as="geometry" />
        </mxCell>
        <mxCell id="lhP6wnL_BwwjvoR07iWc-230" value="id" style="ellipse;whiteSpace=wrap;html=1;align=center;fontStyle=4;" vertex="1" parent="1">
          <mxGeometry x="245" y="820" width="100" height="40" as="geometry" />
        </mxCell>
        <mxCell id="lhP6wnL_BwwjvoR07iWc-231" value="first_name" style="ellipse;whiteSpace=wrap;html=1;align=center;" vertex="1" parent="1">
          <mxGeometry x="470" y="910" width="100" height="40" as="geometry" />
        </mxCell>
        <mxCell id="lhP6wnL_BwwjvoR07iWc-232" value="last_name" style="ellipse;whiteSpace=wrap;html=1;align=center;" vertex="1" parent="1">
          <mxGeometry x="460" y="820" width="100" height="40" as="geometry" />
        </mxCell>
        <mxCell id="lhP6wnL_BwwjvoR07iWc-234" value="expertise" style="ellipse;whiteSpace=wrap;html=1;align=center;" vertex="1" parent="1">
          <mxGeometry x="330" y="940" width="100" height="40" as="geometry" />
        </mxCell>
        <mxCell id="lhP6wnL_BwwjvoR07iWc-235" value="" style="endArrow=none;html=1;rounded=0;exitX=0.787;exitY=0.898;exitDx=0;exitDy=0;exitPerimeter=0;entryX=0;entryY=0;entryDx=0;entryDy=0;" edge="1" parent="1" source="lhP6wnL_BwwjvoR07iWc-230" target="lhP6wnL_BwwjvoR07iWc-229">
          <mxGeometry relative="1" as="geometry">
            <mxPoint x="380" y="770" as="sourcePoint" />
            <mxPoint x="415" y="738" as="targetPoint" />
          </mxGeometry>
        </mxCell>
        <mxCell id="lhP6wnL_BwwjvoR07iWc-236" value="" style="endArrow=none;html=1;rounded=0;exitX=0.825;exitY=-0.005;exitDx=0;exitDy=0;exitPerimeter=0;entryX=0.049;entryY=0.752;entryDx=0;entryDy=0;entryPerimeter=0;" edge="1" parent="1" source="lhP6wnL_BwwjvoR07iWc-229" target="lhP6wnL_BwwjvoR07iWc-232">
          <mxGeometry relative="1" as="geometry">
            <mxPoint x="430" y="770" as="sourcePoint" />
            <mxPoint x="465" y="738" as="targetPoint" />
          </mxGeometry>
        </mxCell>
        <mxCell id="lhP6wnL_BwwjvoR07iWc-237" value="" style="endArrow=none;html=1;rounded=0;exitX=0.996;exitY=0.888;exitDx=0;exitDy=0;exitPerimeter=0;entryX=0.205;entryY=0.068;entryDx=0;entryDy=0;entryPerimeter=0;" edge="1" parent="1" source="lhP6wnL_BwwjvoR07iWc-229" target="lhP6wnL_BwwjvoR07iWc-231">
          <mxGeometry relative="1" as="geometry">
            <mxPoint x="480" y="840" as="sourcePoint" />
            <mxPoint x="515" y="808" as="targetPoint" />
          </mxGeometry>
        </mxCell>
        <mxCell id="lhP6wnL_BwwjvoR07iWc-238" value="" style="endArrow=none;html=1;rounded=0;exitX=0.585;exitY=0.008;exitDx=0;exitDy=0;exitPerimeter=0;entryX=0.436;entryY=1.022;entryDx=0;entryDy=0;entryPerimeter=0;" edge="1" parent="1" source="lhP6wnL_BwwjvoR07iWc-234" target="lhP6wnL_BwwjvoR07iWc-229">
          <mxGeometry relative="1" as="geometry">
            <mxPoint x="390" y="850" as="sourcePoint" />
            <mxPoint x="425" y="818" as="targetPoint" />
          </mxGeometry>
        </mxCell>
        <mxCell id="lhP6wnL_BwwjvoR07iWc-240" value="directed" style="shape=rhombus;perimeter=rhombusPerimeter;whiteSpace=wrap;html=1;align=center;" vertex="1" parent="1">
          <mxGeometry x="370" y="690" width="60" height="40" as="geometry" />
        </mxCell>
        <mxCell id="lhP6wnL_BwwjvoR07iWc-241" value="" style="endArrow=none;html=1;rounded=0;exitX=0.409;exitY=0.982;exitDx=0;exitDy=0;exitPerimeter=0;entryX=0.427;entryY=0.073;entryDx=0;entryDy=0;entryPerimeter=0;" edge="1" parent="1" source="lhP6wnL_BwwjvoR07iWc-41" target="lhP6wnL_BwwjvoR07iWc-240">
          <mxGeometry relative="1" as="geometry">
            <mxPoint x="390" y="610" as="sourcePoint" />
            <mxPoint x="415" y="640" as="targetPoint" />
          </mxGeometry>
        </mxCell>
        <mxCell id="lhP6wnL_BwwjvoR07iWc-242" value="" style="endArrow=none;html=1;rounded=0;exitX=0.427;exitY=0.944;exitDx=0;exitDy=0;exitPerimeter=0;entryX=0.34;entryY=-0.032;entryDx=0;entryDy=0;entryPerimeter=0;" edge="1" parent="1" source="lhP6wnL_BwwjvoR07iWc-240" target="lhP6wnL_BwwjvoR07iWc-229">
          <mxGeometry relative="1" as="geometry">
            <mxPoint x="400" y="720" as="sourcePoint" />
            <mxPoint x="425" y="750" as="targetPoint" />
          </mxGeometry>
        </mxCell>
        <mxCell id="lhP6wnL_BwwjvoR07iWc-243" value="" style="endArrow=none;html=1;rounded=0;exitX=0.596;exitY=0.891;exitDx=0;exitDy=0;exitPerimeter=0;entryX=0.388;entryY=0.008;entryDx=0;entryDy=0;entryPerimeter=0;" edge="1" parent="1" source="lhP6wnL_BwwjvoR07iWc-240" target="lhP6wnL_BwwjvoR07iWc-229">
          <mxGeometry relative="1" as="geometry">
            <mxPoint x="420" y="710" as="sourcePoint" />
            <mxPoint x="445" y="740" as="targetPoint" />
          </mxGeometry>
        </mxCell>
        <mxCell id="lhP6wnL_BwwjvoR07iWc-244" value="" style="endArrow=none;html=1;rounded=0;exitX=0.452;exitY=0.982;exitDx=0;exitDy=0;exitPerimeter=0;entryX=0.587;entryY=0.056;entryDx=0;entryDy=0;entryPerimeter=0;" edge="1" parent="1" source="lhP6wnL_BwwjvoR07iWc-41" target="lhP6wnL_BwwjvoR07iWc-240">
          <mxGeometry relative="1" as="geometry">
            <mxPoint x="410" y="620" as="sourcePoint" />
            <mxPoint x="435" y="650" as="targetPoint" />
          </mxGeometry>
        </mxCell>
        <mxCell id="lhP6wnL_BwwjvoR07iWc-245" value="1" style="text;html=1;strokeColor=none;fillColor=none;align=center;verticalAlign=middle;whiteSpace=wrap;rounded=0;" vertex="1" parent="1">
          <mxGeometry x="395" y="760" width="30" height="10" as="geometry" />
        </mxCell>
        <mxCell id="lhP6wnL_BwwjvoR07iWc-246" value="M" style="text;html=1;strokeColor=none;fillColor=none;align=center;verticalAlign=middle;whiteSpace=wrap;rounded=0;" vertex="1" parent="1">
          <mxGeometry x="400" y="620" width="30" height="10" as="geometry" />
        </mxCell>
        <mxCell id="lhP6wnL_BwwjvoR07iWc-247" value="director_salary" style="ellipse;whiteSpace=wrap;html=1;align=center;" vertex="1" parent="1">
          <mxGeometry x="410" y="560" width="100" height="40" as="geometry" />
        </mxCell>
        <mxCell id="lhP6wnL_BwwjvoR07iWc-248" value="" style="endArrow=none;html=1;rounded=0;exitX=0.692;exitY=1.008;exitDx=0;exitDy=0;exitPerimeter=0;entryX=0.395;entryY=0.008;entryDx=0;entryDy=0;entryPerimeter=0;" edge="1" parent="1" source="lhP6wnL_BwwjvoR07iWc-41" target="lhP6wnL_BwwjvoR07iWc-247">
          <mxGeometry relative="1" as="geometry">
            <mxPoint x="440" y="540" as="sourcePoint" />
            <mxPoint x="457" y="551" as="targetPoint" />
          </mxGeometry>
        </mxCell>
        <mxCell id="lhP6wnL_BwwjvoR07iWc-249" value="sequel" style="shape=rhombus;perimeter=rhombusPerimeter;whiteSpace=wrap;html=1;align=center;" vertex="1" parent="1">
          <mxGeometry x="230" y="490" width="70" height="30" as="geometry" />
        </mxCell>
        <mxCell id="lhP6wnL_BwwjvoR07iWc-250" value="" style="endArrow=none;html=1;rounded=0;exitX=0.575;exitY=0.069;exitDx=0;exitDy=0;exitPerimeter=0;entryX=0.004;entryY=0.155;entryDx=0;entryDy=0;entryPerimeter=0;" edge="1" parent="1" source="lhP6wnL_BwwjvoR07iWc-249" target="lhP6wnL_BwwjvoR07iWc-41">
          <mxGeometry relative="1" as="geometry">
            <mxPoint x="310" y="490" as="sourcePoint" />
            <mxPoint x="369" y="510" as="targetPoint" />
          </mxGeometry>
        </mxCell>
        <mxCell id="lhP6wnL_BwwjvoR07iWc-251" value="" style="endArrow=none;html=1;rounded=0;exitX=0.59;exitY=0.904;exitDx=0;exitDy=0;exitPerimeter=0;entryX=-0.007;entryY=0.902;entryDx=0;entryDy=0;entryPerimeter=0;" edge="1" parent="1" source="lhP6wnL_BwwjvoR07iWc-249" target="lhP6wnL_BwwjvoR07iWc-41">
          <mxGeometry relative="1" as="geometry">
            <mxPoint x="300" y="520" as="sourcePoint" />
            <mxPoint x="359" y="540" as="targetPoint" />
          </mxGeometry>
        </mxCell>
        <mxCell id="lhP6wnL_BwwjvoR07iWc-252" value="" style="endArrow=none;html=1;rounded=0;exitX=0.5;exitY=1;exitDx=0;exitDy=0;entryX=0.057;entryY=0.982;entryDx=0;entryDy=0;entryPerimeter=0;" edge="1" parent="1" source="lhP6wnL_BwwjvoR07iWc-249" target="lhP6wnL_BwwjvoR07iWc-41">
          <mxGeometry relative="1" as="geometry">
            <mxPoint x="250" y="540" as="sourcePoint" />
            <mxPoint x="309" y="560" as="targetPoint" />
          </mxGeometry>
        </mxCell>
        <mxCell id="lhP6wnL_BwwjvoR07iWc-253" value="1" style="text;html=1;strokeColor=none;fillColor=none;align=center;verticalAlign=middle;whiteSpace=wrap;rounded=0;" vertex="1" parent="1">
          <mxGeometry x="290" y="480" width="30" height="10" as="geometry" />
        </mxCell>
        <mxCell id="lhP6wnL_BwwjvoR07iWc-254" value="1" style="text;html=1;strokeColor=none;fillColor=none;align=center;verticalAlign=middle;whiteSpace=wrap;rounded=0;" vertex="1" parent="1">
          <mxGeometry x="300" y="520" width="30" height="10" as="geometry" />
        </mxCell>
        <mxCell id="lhP6wnL_BwwjvoR07iWc-256" value="CRITIC" style="whiteSpace=wrap;html=1;align=center;" vertex="1" parent="1">
          <mxGeometry x="1110" y="690" width="100" height="40" as="geometry" />
        </mxCell>
        <mxCell id="lhP6wnL_BwwjvoR07iWc-257" value="id" style="ellipse;whiteSpace=wrap;html=1;align=center;fontStyle=4;" vertex="1" parent="1">
          <mxGeometry x="1020" y="630" width="100" height="40" as="geometry" />
        </mxCell>
        <mxCell id="lhP6wnL_BwwjvoR07iWc-258" value="first_name" style="ellipse;whiteSpace=wrap;html=1;align=center;" vertex="1" parent="1">
          <mxGeometry x="1170" y="620" width="100" height="40" as="geometry" />
        </mxCell>
        <mxCell id="lhP6wnL_BwwjvoR07iWc-259" value="last_name" style="ellipse;whiteSpace=wrap;html=1;align=center;" vertex="1" parent="1">
          <mxGeometry x="1250" y="670" width="100" height="40" as="geometry" />
        </mxCell>
        <mxCell id="lhP6wnL_BwwjvoR07iWc-260" value="username" style="ellipse;whiteSpace=wrap;html=1;align=center;" vertex="1" parent="1">
          <mxGeometry x="1210" y="760" width="100" height="40" as="geometry" />
        </mxCell>
        <mxCell id="lhP6wnL_BwwjvoR07iWc-261" value="password" style="ellipse;whiteSpace=wrap;html=1;align=center;" vertex="1" parent="1">
          <mxGeometry x="1020" y="750" width="100" height="40" as="geometry" />
        </mxCell>
        <mxCell id="lhP6wnL_BwwjvoR07iWc-262" value="critique" style="shape=rhombus;perimeter=rhombusPerimeter;whiteSpace=wrap;html=1;align=center;" vertex="1" parent="1">
          <mxGeometry x="620" y="660" width="70" height="30" as="geometry" />
        </mxCell>
        <mxCell id="lhP6wnL_BwwjvoR07iWc-263" value="" style="endArrow=none;html=1;rounded=0;exitX=0.841;exitY=0.982;exitDx=0;exitDy=0;exitPerimeter=0;entryX=0.099;entryY=0.356;entryDx=0;entryDy=0;entryPerimeter=0;" edge="1" parent="1" source="lhP6wnL_BwwjvoR07iWc-41" target="lhP6wnL_BwwjvoR07iWc-262">
          <mxGeometry relative="1" as="geometry">
            <mxPoint x="570" y="580" as="sourcePoint" />
            <mxPoint x="591" y="620" as="targetPoint" />
          </mxGeometry>
        </mxCell>
        <mxCell id="lhP6wnL_BwwjvoR07iWc-265" value="" style="endArrow=none;html=1;rounded=0;exitX=0.867;exitY=0.356;exitDx=0;exitDy=0;exitPerimeter=0;entryX=0.001;entryY=0.385;entryDx=0;entryDy=0;entryPerimeter=0;" edge="1" parent="1" source="lhP6wnL_BwwjvoR07iWc-262" target="lhP6wnL_BwwjvoR07iWc-256">
          <mxGeometry relative="1" as="geometry">
            <mxPoint x="750" y="550" as="sourcePoint" />
            <mxPoint x="771" y="590" as="targetPoint" />
          </mxGeometry>
        </mxCell>
        <mxCell id="lhP6wnL_BwwjvoR07iWc-266" value="" style="endArrow=none;html=1;rounded=0;exitX=0.935;exitY=0.444;exitDx=0;exitDy=0;exitPerimeter=0;entryX=0.007;entryY=0.652;entryDx=0;entryDy=0;entryPerimeter=0;" edge="1" parent="1" source="lhP6wnL_BwwjvoR07iWc-262" target="lhP6wnL_BwwjvoR07iWc-256">
          <mxGeometry relative="1" as="geometry">
            <mxPoint x="780" y="580" as="sourcePoint" />
            <mxPoint x="801" y="620" as="targetPoint" />
          </mxGeometry>
        </mxCell>
        <mxCell id="lhP6wnL_BwwjvoR07iWc-267" value="1week_premiere_money" style="ellipse;whiteSpace=wrap;html=1;align=center;" vertex="1" parent="1">
          <mxGeometry x="500" y="485" width="150" height="50" as="geometry" />
        </mxCell>
        <mxCell id="lhP6wnL_BwwjvoR07iWc-269" value="M" style="text;html=1;strokeColor=none;fillColor=none;align=center;verticalAlign=middle;whiteSpace=wrap;rounded=0;" vertex="1" parent="1">
          <mxGeometry x="570" y="610" width="30" height="10" as="geometry" />
        </mxCell>
        <mxCell id="lhP6wnL_BwwjvoR07iWc-270" value="N" style="text;html=1;strokeColor=none;fillColor=none;align=center;verticalAlign=middle;whiteSpace=wrap;rounded=0;" vertex="1" parent="1">
          <mxGeometry x="730" y="660" width="30" height="10" as="geometry" />
        </mxCell>
        <mxCell id="lhP6wnL_BwwjvoR07iWc-271" value="rate" style="ellipse;whiteSpace=wrap;html=1;align=center;" vertex="1" parent="1">
          <mxGeometry x="585" y="710" width="85" height="40" as="geometry" />
        </mxCell>
        <mxCell id="lhP6wnL_BwwjvoR07iWc-272" value="" style="endArrow=none;html=1;rounded=0;exitX=0.364;exitY=0.889;exitDx=0;exitDy=0;exitPerimeter=0;entryX=0.387;entryY=0.018;entryDx=0;entryDy=0;entryPerimeter=0;" edge="1" parent="1" source="lhP6wnL_BwwjvoR07iWc-262" target="lhP6wnL_BwwjvoR07iWc-271">
          <mxGeometry relative="1" as="geometry">
            <mxPoint x="680" y="610" as="sourcePoint" />
            <mxPoint x="919" y="589" as="targetPoint" />
          </mxGeometry>
        </mxCell>
        <mxCell id="lhP6wnL_BwwjvoR07iWc-281" value="acting" style="ellipse;whiteSpace=wrap;html=1;align=center;" vertex="1" parent="1">
          <mxGeometry x="880" y="545" width="100" height="40" as="geometry" />
        </mxCell>
        <mxCell id="lhP6wnL_BwwjvoR07iWc-282" value="expresion" style="ellipse;whiteSpace=wrap;html=1;align=center;" vertex="1" parent="1">
          <mxGeometry x="1090" y="410" width="100" height="40" as="geometry" />
        </mxCell>
        <mxCell id="lhP6wnL_BwwjvoR07iWc-283" value="naturalness" style="ellipse;whiteSpace=wrap;html=1;align=center;" vertex="1" parent="1">
          <mxGeometry x="1110" y="465" width="100" height="40" as="geometry" />
        </mxCell>
        <mxCell id="lhP6wnL_BwwjvoR07iWc-284" value="devotion" style="ellipse;whiteSpace=wrap;html=1;align=center;" vertex="1" parent="1">
          <mxGeometry x="1030" y="365" width="100" height="40" as="geometry" />
        </mxCell>
        <mxCell id="lhP6wnL_BwwjvoR07iWc-285" value="" style="endArrow=none;html=1;rounded=0;entryX=0.752;entryY=0.14;entryDx=0;entryDy=0;entryPerimeter=0;exitX=0.328;exitY=0.985;exitDx=0;exitDy=0;exitPerimeter=0;" edge="1" parent="1" source="lhP6wnL_BwwjvoR07iWc-295" target="lhP6wnL_BwwjvoR07iWc-281">
          <mxGeometry relative="1" as="geometry">
            <mxPoint x="1011" y="330" as="sourcePoint" />
            <mxPoint x="1015" y="137" as="targetPoint" />
          </mxGeometry>
        </mxCell>
        <mxCell id="lhP6wnL_BwwjvoR07iWc-286" value="" style="endArrow=none;html=1;rounded=0;entryX=0.021;entryY=0.633;entryDx=0;entryDy=0;entryPerimeter=0;exitX=0.92;exitY=-0.015;exitDx=0;exitDy=0;exitPerimeter=0;" edge="1" parent="1" source="lhP6wnL_BwwjvoR07iWc-295" target="lhP6wnL_BwwjvoR07iWc-282">
          <mxGeometry relative="1" as="geometry">
            <mxPoint x="1040" y="330" as="sourcePoint" />
            <mxPoint x="1035" y="147" as="targetPoint" />
          </mxGeometry>
        </mxCell>
        <mxCell id="lhP6wnL_BwwjvoR07iWc-287" value="" style="endArrow=none;html=1;rounded=0;entryX=0.039;entryY=0.677;entryDx=0;entryDy=0;entryPerimeter=0;exitX=1;exitY=0.75;exitDx=0;exitDy=0;" edge="1" parent="1" source="lhP6wnL_BwwjvoR07iWc-295" target="lhP6wnL_BwwjvoR07iWc-283">
          <mxGeometry relative="1" as="geometry">
            <mxPoint x="1040" y="340" as="sourcePoint" />
            <mxPoint x="1035" y="177" as="targetPoint" />
          </mxGeometry>
        </mxCell>
        <mxCell id="lhP6wnL_BwwjvoR07iWc-288" value="" style="endArrow=none;html=1;rounded=0;exitX=0.412;exitY=1.04;exitDx=0;exitDy=0;exitPerimeter=0;entryX=0.632;entryY=0.065;entryDx=0;entryDy=0;entryPerimeter=0;" edge="1" parent="1" source="lhP6wnL_BwwjvoR07iWc-284" target="lhP6wnL_BwwjvoR07iWc-295">
          <mxGeometry relative="1" as="geometry">
            <mxPoint x="1020" y="360" as="sourcePoint" />
            <mxPoint x="1020" y="360" as="targetPoint" />
          </mxGeometry>
        </mxCell>
        <mxCell id="lhP6wnL_BwwjvoR07iWc-289" value="" style="endArrow=none;html=1;rounded=0;exitX=0.172;exitY=-0.002;exitDx=0;exitDy=0;exitPerimeter=0;entryX=0.723;entryY=0.965;entryDx=0;entryDy=0;entryPerimeter=0;" edge="1" parent="1" source="lhP6wnL_BwwjvoR07iWc-256" target="lhP6wnL_BwwjvoR07iWc-257">
          <mxGeometry relative="1" as="geometry">
            <mxPoint x="940" y="450" as="sourcePoint" />
            <mxPoint x="935" y="277" as="targetPoint" />
          </mxGeometry>
        </mxCell>
        <mxCell id="lhP6wnL_BwwjvoR07iWc-290" value="" style="endArrow=none;html=1;rounded=0;exitX=0.057;exitY=0.702;exitDx=0;exitDy=0;exitPerimeter=0;entryX=0.871;entryY=-0.015;entryDx=0;entryDy=0;entryPerimeter=0;" edge="1" parent="1" source="lhP6wnL_BwwjvoR07iWc-258" target="lhP6wnL_BwwjvoR07iWc-256">
          <mxGeometry relative="1" as="geometry">
            <mxPoint x="1020" y="510" as="sourcePoint" />
            <mxPoint x="1005" y="489" as="targetPoint" />
          </mxGeometry>
        </mxCell>
        <mxCell id="lhP6wnL_BwwjvoR07iWc-291" value="" style="endArrow=none;html=1;rounded=0;exitX=0.025;exitY=0.375;exitDx=0;exitDy=0;exitPerimeter=0;entryX=0.993;entryY=0.652;entryDx=0;entryDy=0;entryPerimeter=0;" edge="1" parent="1" source="lhP6wnL_BwwjvoR07iWc-259" target="lhP6wnL_BwwjvoR07iWc-256">
          <mxGeometry relative="1" as="geometry">
            <mxPoint x="1060" y="550" as="sourcePoint" />
            <mxPoint x="1045" y="529" as="targetPoint" />
          </mxGeometry>
        </mxCell>
        <mxCell id="lhP6wnL_BwwjvoR07iWc-292" value="" style="endArrow=none;html=1;rounded=0;exitX=0.331;exitY=0.04;exitDx=0;exitDy=0;exitPerimeter=0;entryX=0.807;entryY=0.985;entryDx=0;entryDy=0;entryPerimeter=0;" edge="1" parent="1" source="lhP6wnL_BwwjvoR07iWc-260" target="lhP6wnL_BwwjvoR07iWc-256">
          <mxGeometry relative="1" as="geometry">
            <mxPoint x="1020" y="580" as="sourcePoint" />
            <mxPoint x="1005" y="559" as="targetPoint" />
          </mxGeometry>
        </mxCell>
        <mxCell id="lhP6wnL_BwwjvoR07iWc-293" value="" style="endArrow=none;html=1;rounded=0;exitX=0.561;exitY=0.013;exitDx=0;exitDy=0;exitPerimeter=0;entryX=0.204;entryY=1.025;entryDx=0;entryDy=0;entryPerimeter=0;" edge="1" parent="1" source="lhP6wnL_BwwjvoR07iWc-261" target="lhP6wnL_BwwjvoR07iWc-256">
          <mxGeometry relative="1" as="geometry">
            <mxPoint x="920" y="570" as="sourcePoint" />
            <mxPoint x="905" y="549" as="targetPoint" />
          </mxGeometry>
        </mxCell>
        <mxCell id="lhP6wnL_BwwjvoR07iWc-295" value="ACTOR_CRITIC" style="whiteSpace=wrap;html=1;align=center;" vertex="1" parent="1">
          <mxGeometry x="980" y="480" width="100" height="40" as="geometry" />
        </mxCell>
        <mxCell id="lhP6wnL_BwwjvoR07iWc-296" value="id" style="ellipse;whiteSpace=wrap;html=1;align=center;fontStyle=4;" vertex="1" parent="1">
          <mxGeometry x="850" y="470" width="100" height="40" as="geometry" />
        </mxCell>
        <mxCell id="lhP6wnL_BwwjvoR07iWc-297" value="" style="endArrow=none;html=1;rounded=0;entryX=0.932;entryY=0.755;entryDx=0;entryDy=0;entryPerimeter=0;exitX=0;exitY=0.25;exitDx=0;exitDy=0;" edge="1" parent="1" source="lhP6wnL_BwwjvoR07iWc-295" target="lhP6wnL_BwwjvoR07iWc-296">
          <mxGeometry relative="1" as="geometry">
            <mxPoint x="950" y="410" as="sourcePoint" />
            <mxPoint x="892" y="442" as="targetPoint" />
          </mxGeometry>
        </mxCell>
        <mxCell id="lhP6wnL_BwwjvoR07iWc-298" value="critised" style="shape=rhombus;perimeter=rhombusPerimeter;whiteSpace=wrap;html=1;align=center;" vertex="1" parent="1">
          <mxGeometry x="920" y="340" width="60" height="30" as="geometry" />
        </mxCell>
        <mxCell id="lhP6wnL_BwwjvoR07iWc-299" value="critised" style="shape=rhombus;perimeter=rhombusPerimeter;whiteSpace=wrap;html=1;align=center;" vertex="1" parent="1">
          <mxGeometry x="690" y="565" width="60" height="30" as="geometry" />
        </mxCell>
        <mxCell id="lhP6wnL_BwwjvoR07iWc-300" value="critique" style="shape=rhombus;perimeter=rhombusPerimeter;whiteSpace=wrap;html=1;align=center;" vertex="1" parent="1">
          <mxGeometry x="1080" y="560" width="60" height="30" as="geometry" />
        </mxCell>
        <mxCell id="lhP6wnL_BwwjvoR07iWc-301" value="" style="endArrow=none;html=1;rounded=0;exitX=0.924;exitY=1.02;exitDx=0;exitDy=0;exitPerimeter=0;entryX=0.5;entryY=0;entryDx=0;entryDy=0;" edge="1" parent="1" source="lhP6wnL_BwwjvoR07iWc-16" target="lhP6wnL_BwwjvoR07iWc-298">
          <mxGeometry relative="1" as="geometry">
            <mxPoint x="870" y="310" as="sourcePoint" />
            <mxPoint x="842" y="386" as="targetPoint" />
          </mxGeometry>
        </mxCell>
        <mxCell id="lhP6wnL_BwwjvoR07iWc-302" value="" style="endArrow=none;html=1;rounded=0;exitX=0.128;exitY=0.045;exitDx=0;exitDy=0;exitPerimeter=0;entryX=0.5;entryY=1;entryDx=0;entryDy=0;" edge="1" parent="1" source="lhP6wnL_BwwjvoR07iWc-295" target="lhP6wnL_BwwjvoR07iWc-298">
          <mxGeometry relative="1" as="geometry">
            <mxPoint x="1020" y="280" as="sourcePoint" />
            <mxPoint x="992" y="356" as="targetPoint" />
          </mxGeometry>
        </mxCell>
        <mxCell id="lhP6wnL_BwwjvoR07iWc-303" value="" style="endArrow=none;html=1;rounded=0;exitX=0.627;exitY=0.94;exitDx=0;exitDy=0;exitPerimeter=0;entryX=0.184;entryY=-0.015;entryDx=0;entryDy=0;entryPerimeter=0;" edge="1" parent="1" source="lhP6wnL_BwwjvoR07iWc-298" target="lhP6wnL_BwwjvoR07iWc-295">
          <mxGeometry relative="1" as="geometry">
            <mxPoint x="1010" y="390" as="sourcePoint" />
            <mxPoint x="982" y="466" as="targetPoint" />
          </mxGeometry>
        </mxCell>
        <mxCell id="lhP6wnL_BwwjvoR07iWc-304" value="M" style="text;html=1;strokeColor=none;fillColor=none;align=center;verticalAlign=middle;whiteSpace=wrap;rounded=0;" vertex="1" parent="1">
          <mxGeometry x="1050" y="540" width="30" height="10" as="geometry" />
        </mxCell>
        <mxCell id="lhP6wnL_BwwjvoR07iWc-305" value="1" style="text;html=1;strokeColor=none;fillColor=none;align=center;verticalAlign=middle;whiteSpace=wrap;rounded=0;" vertex="1" parent="1">
          <mxGeometry x="1095" y="620" width="30" height="10" as="geometry" />
        </mxCell>
        <mxCell id="lhP6wnL_BwwjvoR07iWc-307" value="" style="endArrow=none;html=1;rounded=0;exitX=0.848;exitY=1.025;exitDx=0;exitDy=0;exitPerimeter=0;entryX=0.5;entryY=0;entryDx=0;entryDy=0;" edge="1" parent="1" source="lhP6wnL_BwwjvoR07iWc-295" target="lhP6wnL_BwwjvoR07iWc-300">
          <mxGeometry relative="1" as="geometry">
            <mxPoint x="1040" y="550" as="sourcePoint" />
            <mxPoint x="1061" y="591" as="targetPoint" />
          </mxGeometry>
        </mxCell>
        <mxCell id="lhP6wnL_BwwjvoR07iWc-308" value="" style="endArrow=none;html=1;rounded=0;exitX=0.75;exitY=1;exitDx=0;exitDy=0;entryX=0.387;entryY=0.14;entryDx=0;entryDy=0;entryPerimeter=0;" edge="1" parent="1" source="lhP6wnL_BwwjvoR07iWc-295" target="lhP6wnL_BwwjvoR07iWc-300">
          <mxGeometry relative="1" as="geometry">
            <mxPoint x="1030" y="550" as="sourcePoint" />
            <mxPoint x="1051" y="591" as="targetPoint" />
          </mxGeometry>
        </mxCell>
        <mxCell id="lhP6wnL_BwwjvoR07iWc-309" value="" style="endArrow=none;html=1;rounded=0;exitX=0.5;exitY=1;exitDx=0;exitDy=0;entryX=0.436;entryY=0.015;entryDx=0;entryDy=0;entryPerimeter=0;" edge="1" parent="1" source="lhP6wnL_BwwjvoR07iWc-300" target="lhP6wnL_BwwjvoR07iWc-256">
          <mxGeometry relative="1" as="geometry">
            <mxPoint x="1230" y="550" as="sourcePoint" />
            <mxPoint x="1251" y="591" as="targetPoint" />
          </mxGeometry>
        </mxCell>
        <mxCell id="lhP6wnL_BwwjvoR07iWc-310" value="" style="endArrow=none;html=1;rounded=0;exitX=0.627;exitY=0.967;exitDx=0;exitDy=0;entryX=0.5;entryY=0;entryDx=0;entryDy=0;exitPerimeter=0;" edge="1" parent="1" source="lhP6wnL_BwwjvoR07iWc-300" target="lhP6wnL_BwwjvoR07iWc-256">
          <mxGeometry relative="1" as="geometry">
            <mxPoint x="1170" y="580" as="sourcePoint" />
            <mxPoint x="1191" y="621" as="targetPoint" />
          </mxGeometry>
        </mxCell>
        <mxCell id="lhP6wnL_BwwjvoR07iWc-312" value="M" style="text;html=1;strokeColor=none;fillColor=none;align=center;verticalAlign=middle;whiteSpace=wrap;rounded=0;" vertex="1" parent="1">
          <mxGeometry x="810" y="525" width="30" height="10" as="geometry" />
        </mxCell>
        <mxCell id="lhP6wnL_BwwjvoR07iWc-313" value="" style="endArrow=none;html=1;rounded=0;entryX=1;entryY=1;entryDx=0;entryDy=0;exitX=0;exitY=0.5;exitDx=0;exitDy=0;" edge="1" parent="1" source="lhP6wnL_BwwjvoR07iWc-299" target="lhP6wnL_BwwjvoR07iWc-41">
          <mxGeometry relative="1" as="geometry">
            <mxPoint x="610" y="530" as="sourcePoint" />
            <mxPoint x="552" y="562" as="targetPoint" />
          </mxGeometry>
        </mxCell>
        <mxCell id="lhP6wnL_BwwjvoR07iWc-314" value="" style="endArrow=none;html=1;rounded=0;entryX=1;entryY=0.5;entryDx=0;entryDy=0;exitX=0;exitY=0.5;exitDx=0;exitDy=0;" edge="1" parent="1" source="lhP6wnL_BwwjvoR07iWc-295" target="lhP6wnL_BwwjvoR07iWc-299">
          <mxGeometry relative="1" as="geometry">
            <mxPoint x="800" y="530" as="sourcePoint" />
            <mxPoint x="742" y="562" as="targetPoint" />
          </mxGeometry>
        </mxCell>
        <mxCell id="lhP6wnL_BwwjvoR07iWc-315" value="" style="endArrow=none;html=1;rounded=0;entryX=0.873;entryY=0.767;entryDx=0;entryDy=0;entryPerimeter=0;exitX=0;exitY=0.75;exitDx=0;exitDy=0;" edge="1" parent="1" source="lhP6wnL_BwwjvoR07iWc-295" target="lhP6wnL_BwwjvoR07iWc-299">
          <mxGeometry relative="1" as="geometry">
            <mxPoint x="810" y="580" as="sourcePoint" />
            <mxPoint x="752" y="612" as="targetPoint" />
          </mxGeometry>
        </mxCell>
        <mxCell id="lhP6wnL_BwwjvoR07iWc-316" value="1" style="text;html=1;strokeColor=none;fillColor=none;align=center;verticalAlign=middle;whiteSpace=wrap;rounded=0;" vertex="1" parent="1">
          <mxGeometry x="650" y="535" width="30" height="10" as="geometry" />
        </mxCell>
        <mxCell id="O87DbH4CyXOENve4v9fQ-1" value="criticism" style="ellipse;whiteSpace=wrap;html=1;align=center;" vertex="1" parent="1">
          <mxGeometry x="680" y="710" width="90" height="40" as="geometry" />
        </mxCell>
        <mxCell id="O87DbH4CyXOENve4v9fQ-2" value="" style="endArrow=none;html=1;rounded=0;exitX=0.651;exitY=0.86;exitDx=0;exitDy=0;exitPerimeter=0;entryX=0.329;entryY=0.075;entryDx=0;entryDy=0;entryPerimeter=0;" edge="1" parent="1" source="lhP6wnL_BwwjvoR07iWc-262" target="O87DbH4CyXOENve4v9fQ-1">
          <mxGeometry relative="1" as="geometry">
            <mxPoint x="700" y="690" as="sourcePoint" />
            <mxPoint x="673" y="714" as="targetPoint" />
          </mxGeometry>
        </mxCell>
        <mxCell id="O87DbH4CyXOENve4v9fQ-3" value="1" style="text;html=1;strokeColor=none;fillColor=none;align=center;verticalAlign=middle;whiteSpace=wrap;rounded=0;" vertex="1" parent="1">
          <mxGeometry x="890" y="295" width="30" height="10" as="geometry" />
        </mxCell>
        <mxCell id="O87DbH4CyXOENve4v9fQ-4" value="M" style="text;html=1;strokeColor=none;fillColor=none;align=center;verticalAlign=middle;whiteSpace=wrap;rounded=0;" vertex="1" parent="1">
          <mxGeometry x="980" y="420" width="30" height="10" as="geometry" />
        </mxCell>
        <mxCell id="O87DbH4CyXOENve4v9fQ-5" value="criticism" style="ellipse;whiteSpace=wrap;html=1;align=center;" vertex="1" parent="1">
          <mxGeometry x="970" y="570" width="90" height="40" as="geometry" />
        </mxCell>
        <mxCell id="O87DbH4CyXOENve4v9fQ-6" value="" style="endArrow=none;html=1;rounded=0;entryX=0.5;entryY=0;entryDx=0;entryDy=0;exitX=0.5;exitY=1;exitDx=0;exitDy=0;" edge="1" parent="1" source="lhP6wnL_BwwjvoR07iWc-295" target="O87DbH4CyXOENve4v9fQ-5">
          <mxGeometry relative="1" as="geometry">
            <mxPoint x="1010" y="540" as="sourcePoint" />
            <mxPoint x="952" y="572" as="targetPoint" />
          </mxGeometry>
        </mxCell>
        <mxCell id="O87DbH4CyXOENve4v9fQ-8" value="FORMAT" style="whiteSpace=wrap;html=1;align=center;" vertex="1" parent="1">
          <mxGeometry x="100" y="605" width="100" height="40" as="geometry" />
        </mxCell>
        <mxCell id="O87DbH4CyXOENve4v9fQ-9" value="id" style="ellipse;whiteSpace=wrap;html=1;align=center;fontStyle=4;" vertex="1" parent="1">
          <mxGeometry x="220" y="645" width="100" height="40" as="geometry" />
        </mxCell>
        <mxCell id="O87DbH4CyXOENve4v9fQ-10" value="type" style="ellipse;whiteSpace=wrap;html=1;align=center;" vertex="1" parent="1">
          <mxGeometry x="110" y="670" width="100" height="40" as="geometry" />
        </mxCell>
        <mxCell id="O87DbH4CyXOENve4v9fQ-12" value="Can be 2D&lt;br&gt;or 3D" style="shape=note;size=20;whiteSpace=wrap;html=1;align=left;" vertex="1" parent="1">
          <mxGeometry x="70" y="700" width="80" height="50" as="geometry" />
        </mxCell>
        <mxCell id="O87DbH4CyXOENve4v9fQ-13" value="" style="endArrow=none;html=1;rounded=0;exitX=1;exitY=0.75;exitDx=0;exitDy=0;" edge="1" parent="1" source="O87DbH4CyXOENve4v9fQ-8" target="O87DbH4CyXOENve4v9fQ-9">
          <mxGeometry relative="1" as="geometry">
            <mxPoint x="230" y="610" as="sourcePoint" />
            <mxPoint x="244.80000000000018" y="568.4000000000001" as="targetPoint" />
          </mxGeometry>
        </mxCell>
        <mxCell id="O87DbH4CyXOENve4v9fQ-14" value="" style="endArrow=none;html=1;rounded=0;exitX=0.5;exitY=0;exitDx=0;exitDy=0;entryX=0.6;entryY=1.04;entryDx=0;entryDy=0;entryPerimeter=0;" edge="1" parent="1" source="O87DbH4CyXOENve4v9fQ-10" target="O87DbH4CyXOENve4v9fQ-8">
          <mxGeometry relative="1" as="geometry">
            <mxPoint x="130" y="660" as="sourcePoint" />
            <mxPoint x="144.80000000000018" y="618.4000000000001" as="targetPoint" />
          </mxGeometry>
        </mxCell>
        <mxCell id="O87DbH4CyXOENve4v9fQ-15" value="has" style="shape=rhombus;perimeter=rhombusPerimeter;whiteSpace=wrap;html=1;align=center;" vertex="1" parent="1">
          <mxGeometry x="265" y="570" width="80" height="40" as="geometry" />
        </mxCell>
        <mxCell id="O87DbH4CyXOENve4v9fQ-16" value="" style="endArrow=none;html=1;rounded=0;exitX=1;exitY=0.25;exitDx=0;exitDy=0;entryX=0.5;entryY=1;entryDx=0;entryDy=0;" edge="1" parent="1" source="O87DbH4CyXOENve4v9fQ-8" target="O87DbH4CyXOENve4v9fQ-15">
          <mxGeometry relative="1" as="geometry">
            <mxPoint x="220" y="580" as="sourcePoint" />
            <mxPoint x="289" y="530" as="targetPoint" />
          </mxGeometry>
        </mxCell>
        <mxCell id="O87DbH4CyXOENve4v9fQ-17" value="" style="endArrow=none;html=1;rounded=0;exitX=0.597;exitY=0.055;exitDx=0;exitDy=0;entryX=0.25;entryY=1;entryDx=0;entryDy=0;exitPerimeter=0;" edge="1" parent="1" source="O87DbH4CyXOENve4v9fQ-15" target="lhP6wnL_BwwjvoR07iWc-41">
          <mxGeometry relative="1" as="geometry">
            <mxPoint x="230" y="550" as="sourcePoint" />
            <mxPoint x="299" y="500" as="targetPoint" />
          </mxGeometry>
        </mxCell>
        <mxCell id="O87DbH4CyXOENve4v9fQ-18" value="M" style="text;html=1;strokeColor=none;fillColor=none;align=center;verticalAlign=middle;whiteSpace=wrap;rounded=0;" vertex="1" parent="1">
          <mxGeometry x="335" y="550" width="30" height="10" as="geometry" />
        </mxCell>
        <mxCell id="O87DbH4CyXOENve4v9fQ-19" value="1" style="text;html=1;strokeColor=none;fillColor=none;align=center;verticalAlign=middle;whiteSpace=wrap;rounded=0;" vertex="1" parent="1">
          <mxGeometry x="230" y="595" width="30" height="10" as="geometry" />
        </mxCell>
        <mxCell id="O87DbH4CyXOENve4v9fQ-21" value="GENRE" style="whiteSpace=wrap;html=1;align=center;" vertex="1" parent="1">
          <mxGeometry x="-115" y="585" width="100" height="40" as="geometry" />
        </mxCell>
        <mxCell id="O87DbH4CyXOENve4v9fQ-22" value="id" style="ellipse;whiteSpace=wrap;html=1;align=center;fontStyle=4;" vertex="1" parent="1">
          <mxGeometry x="-245" y="595" width="100" height="40" as="geometry" />
        </mxCell>
        <mxCell id="O87DbH4CyXOENve4v9fQ-23" value="type" style="ellipse;whiteSpace=wrap;html=1;align=center;" vertex="1" parent="1">
          <mxGeometry x="-160" y="650" width="100" height="40" as="geometry" />
        </mxCell>
        <mxCell id="O87DbH4CyXOENve4v9fQ-24" value="" style="endArrow=none;html=1;rounded=0;exitX=0.954;exitY=0.35;exitDx=0;exitDy=0;exitPerimeter=0;entryX=0;entryY=0.5;entryDx=0;entryDy=0;" edge="1" parent="1" source="O87DbH4CyXOENve4v9fQ-22" target="O87DbH4CyXOENve4v9fQ-21">
          <mxGeometry relative="1" as="geometry">
            <mxPoint x="-140" y="570" as="sourcePoint" />
            <mxPoint x="-139" y="549" as="targetPoint" />
          </mxGeometry>
        </mxCell>
        <mxCell id="O87DbH4CyXOENve4v9fQ-25" value="" style="endArrow=none;html=1;rounded=0;exitX=0.616;exitY=0.035;exitDx=0;exitDy=0;exitPerimeter=0;entryX=0.334;entryY=1.04;entryDx=0;entryDy=0;entryPerimeter=0;" edge="1" parent="1" source="O87DbH4CyXOENve4v9fQ-23" target="O87DbH4CyXOENve4v9fQ-21">
          <mxGeometry relative="1" as="geometry">
            <mxPoint x="-60" y="640" as="sourcePoint" />
            <mxPoint x="-59" y="619" as="targetPoint" />
          </mxGeometry>
        </mxCell>
        <mxCell id="O87DbH4CyXOENve4v9fQ-26" value="has" style="shape=rhombus;perimeter=rhombusPerimeter;whiteSpace=wrap;html=1;align=center;" vertex="1" parent="1">
          <mxGeometry x="110" y="415" width="70" height="30" as="geometry" />
        </mxCell>
        <mxCell id="O87DbH4CyXOENve4v9fQ-27" value="" style="endArrow=none;html=1;rounded=0;exitX=0.5;exitY=0;exitDx=0;exitDy=0;entryX=0.44;entryY=1.025;entryDx=0;entryDy=0;entryPerimeter=0;" edge="1" parent="1" source="O87DbH4CyXOENve4v9fQ-26" target="lhP6wnL_BwwjvoR07iWc-1">
          <mxGeometry relative="1" as="geometry">
            <mxPoint x="210" y="340" as="sourcePoint" />
            <mxPoint x="274" y="315" as="targetPoint" />
          </mxGeometry>
        </mxCell>
        <mxCell id="O87DbH4CyXOENve4v9fQ-28" value="" style="endArrow=none;html=1;rounded=0;exitX=0.611;exitY=0.093;exitDx=0;exitDy=0;entryX=0.5;entryY=1;entryDx=0;entryDy=0;exitPerimeter=0;" edge="1" parent="1" source="O87DbH4CyXOENve4v9fQ-26" target="lhP6wnL_BwwjvoR07iWc-1">
          <mxGeometry relative="1" as="geometry">
            <mxPoint x="220" y="350" as="sourcePoint" />
            <mxPoint x="284" y="325" as="targetPoint" />
          </mxGeometry>
        </mxCell>
        <mxCell id="O87DbH4CyXOENve4v9fQ-29" value="" style="endArrow=none;html=1;rounded=0;exitX=0.87;exitY=-0.02;exitDx=0;exitDy=0;entryX=0.5;entryY=1;entryDx=0;entryDy=0;exitPerimeter=0;" edge="1" parent="1" source="O87DbH4CyXOENve4v9fQ-21" target="O87DbH4CyXOENve4v9fQ-26">
          <mxGeometry relative="1" as="geometry">
            <mxPoint x="60" y="510" as="sourcePoint" />
            <mxPoint x="124" y="485" as="targetPoint" />
          </mxGeometry>
        </mxCell>
        <mxCell id="O87DbH4CyXOENve4v9fQ-30" value="M" style="text;html=1;strokeColor=none;fillColor=none;align=center;verticalAlign=middle;whiteSpace=wrap;rounded=0;" vertex="1" parent="1">
          <mxGeometry x="180" y="350" width="30" height="10" as="geometry" />
        </mxCell>
        <mxCell id="O87DbH4CyXOENve4v9fQ-31" value="direct" style="shape=rhombus;perimeter=rhombusPerimeter;whiteSpace=wrap;html=1;align=center;" vertex="1" parent="1">
          <mxGeometry x="-10" y="810" width="70" height="30" as="geometry" />
        </mxCell>
        <mxCell id="O87DbH4CyXOENve4v9fQ-32" value="" style="endArrow=none;html=1;rounded=0;exitX=0.75;exitY=1;exitDx=0;exitDy=0;entryX=0.5;entryY=0;entryDx=0;entryDy=0;" edge="1" parent="1" source="O87DbH4CyXOENve4v9fQ-21" target="O87DbH4CyXOENve4v9fQ-31">
          <mxGeometry relative="1" as="geometry">
            <mxPoint y="680" as="sourcePoint" />
            <mxPoint x="173" y="541" as="targetPoint" />
          </mxGeometry>
        </mxCell>
        <mxCell id="O87DbH4CyXOENve4v9fQ-33" value="" style="endArrow=none;html=1;rounded=0;exitX=0.5;exitY=1;exitDx=0;exitDy=0;entryX=0;entryY=0.5;entryDx=0;entryDy=0;" edge="1" parent="1" source="O87DbH4CyXOENve4v9fQ-31" target="lhP6wnL_BwwjvoR07iWc-229">
          <mxGeometry relative="1" as="geometry">
            <mxPoint x="170" y="820" as="sourcePoint" />
            <mxPoint x="343" y="681" as="targetPoint" />
          </mxGeometry>
        </mxCell>
        <mxCell id="O87DbH4CyXOENve4v9fQ-34" value="" style="endArrow=none;html=1;rounded=0;exitX=0.657;exitY=0.847;exitDx=0;exitDy=0;entryX=0;entryY=0.25;entryDx=0;entryDy=0;exitPerimeter=0;" edge="1" parent="1" source="O87DbH4CyXOENve4v9fQ-31" target="lhP6wnL_BwwjvoR07iWc-229">
          <mxGeometry relative="1" as="geometry">
            <mxPoint x="140" y="810" as="sourcePoint" />
            <mxPoint x="313" y="671" as="targetPoint" />
          </mxGeometry>
        </mxCell>
        <mxCell id="O87DbH4CyXOENve4v9fQ-35" value="M" style="text;html=1;strokeColor=none;fillColor=none;align=center;verticalAlign=middle;whiteSpace=wrap;rounded=0;" vertex="1" parent="1">
          <mxGeometry x="110" y="830" width="30" height="10" as="geometry" />
        </mxCell>
        <mxCell id="O87DbH4CyXOENve4v9fQ-36" value="1" style="text;html=1;strokeColor=none;fillColor=none;align=center;verticalAlign=middle;whiteSpace=wrap;rounded=0;" vertex="1" parent="1">
          <mxGeometry x="10" y="740" width="30" height="10" as="geometry" />
        </mxCell>
        <mxCell id="O87DbH4CyXOENve4v9fQ-37" value="1" style="text;html=1;strokeColor=none;fillColor=none;align=center;verticalAlign=middle;whiteSpace=wrap;rounded=0;" vertex="1" parent="1">
          <mxGeometry x="315" y="390" width="30" height="10" as="geometry" />
        </mxCell>
        <mxCell id="O87DbH4CyXOENve4v9fQ-38" value="PREMIERE_CITY" style="whiteSpace=wrap;html=1;align=center;" vertex="1" parent="1">
          <mxGeometry x="390" y="340" width="100" height="40" as="geometry" />
        </mxCell>
        <mxCell id="O87DbH4CyXOENve4v9fQ-39" value="id" style="ellipse;whiteSpace=wrap;html=1;align=center;fontStyle=4;" vertex="1" parent="1">
          <mxGeometry x="445" y="295" width="100" height="40" as="geometry" />
        </mxCell>
        <mxCell id="O87DbH4CyXOENve4v9fQ-40" value="city" style="ellipse;whiteSpace=wrap;html=1;align=center;" vertex="1" parent="1">
          <mxGeometry x="490" y="375" width="100" height="40" as="geometry" />
        </mxCell>
        <mxCell id="O87DbH4CyXOENve4v9fQ-41" value="premiere" style="shape=rhombus;perimeter=rhombusPerimeter;whiteSpace=wrap;html=1;align=center;" vertex="1" parent="1">
          <mxGeometry x="315" y="290" width="70" height="30" as="geometry" />
        </mxCell>
        <mxCell id="O87DbH4CyXOENve4v9fQ-42" value="premiere" style="shape=rhombus;perimeter=rhombusPerimeter;whiteSpace=wrap;html=1;align=center;" vertex="1" parent="1">
          <mxGeometry x="410" y="415" width="70" height="30" as="geometry" />
        </mxCell>
        <mxCell id="O87DbH4CyXOENve4v9fQ-43" value="" style="endArrow=none;html=1;rounded=0;exitX=0;exitY=1;exitDx=0;exitDy=0;entryX=0.5;entryY=0;entryDx=0;entryDy=0;" edge="1" parent="1" source="O87DbH4CyXOENve4v9fQ-39" target="O87DbH4CyXOENve4v9fQ-38">
          <mxGeometry relative="1" as="geometry">
            <mxPoint x="520" y="350" as="sourcePoint" />
            <mxPoint x="522" y="278" as="targetPoint" />
          </mxGeometry>
        </mxCell>
        <mxCell id="O87DbH4CyXOENve4v9fQ-44" value="" style="endArrow=none;html=1;rounded=0;exitX=0;exitY=0.5;exitDx=0;exitDy=0;entryX=0.75;entryY=1;entryDx=0;entryDy=0;" edge="1" parent="1" source="O87DbH4CyXOENve4v9fQ-40" target="O87DbH4CyXOENve4v9fQ-38">
          <mxGeometry relative="1" as="geometry">
            <mxPoint x="520" y="350" as="sourcePoint" />
            <mxPoint x="522" y="278" as="targetPoint" />
          </mxGeometry>
        </mxCell>
        <mxCell id="O87DbH4CyXOENve4v9fQ-45" value="" style="endArrow=none;html=1;rounded=0;exitX=0.5;exitY=0;exitDx=0;exitDy=0;entryX=1;entryY=1;entryDx=0;entryDy=0;" edge="1" parent="1" source="O87DbH4CyXOENve4v9fQ-41" target="lhP6wnL_BwwjvoR07iWc-1">
          <mxGeometry relative="1" as="geometry">
            <mxPoint x="400" y="270" as="sourcePoint" />
            <mxPoint x="402" y="198" as="targetPoint" />
          </mxGeometry>
        </mxCell>
        <mxCell id="O87DbH4CyXOENve4v9fQ-46" value="" style="endArrow=none;html=1;rounded=0;exitX=0.414;exitY=0.1;exitDx=0;exitDy=0;entryX=0.912;entryY=1.025;entryDx=0;entryDy=0;exitPerimeter=0;entryPerimeter=0;" edge="1" parent="1" source="O87DbH4CyXOENve4v9fQ-41" target="lhP6wnL_BwwjvoR07iWc-1">
          <mxGeometry relative="1" as="geometry">
            <mxPoint x="380" y="270" as="sourcePoint" />
            <mxPoint x="382" y="198" as="targetPoint" />
          </mxGeometry>
        </mxCell>
        <mxCell id="O87DbH4CyXOENve4v9fQ-47" value="" style="endArrow=none;html=1;rounded=0;exitX=0.25;exitY=0;exitDx=0;exitDy=0;entryX=1;entryY=1;entryDx=0;entryDy=0;" edge="1" parent="1" source="O87DbH4CyXOENve4v9fQ-38" target="O87DbH4CyXOENve4v9fQ-41">
          <mxGeometry relative="1" as="geometry">
            <mxPoint x="410" y="270" as="sourcePoint" />
            <mxPoint x="412" y="198" as="targetPoint" />
          </mxGeometry>
        </mxCell>
        <mxCell id="O87DbH4CyXOENve4v9fQ-49" value="" style="endArrow=none;html=1;rounded=0;exitX=0.824;exitY=0.025;exitDx=0;exitDy=0;exitPerimeter=0;entryX=0.634;entryY=0.92;entryDx=0;entryDy=0;entryPerimeter=0;" edge="1" parent="1" source="lhP6wnL_BwwjvoR07iWc-41" target="O87DbH4CyXOENve4v9fQ-42">
          <mxGeometry relative="1" as="geometry">
            <mxPoint x="450" y="460" as="sourcePoint" />
            <mxPoint x="450" y="440" as="targetPoint" />
          </mxGeometry>
        </mxCell>
        <mxCell id="O87DbH4CyXOENve4v9fQ-50" value="" style="endArrow=none;html=1;rounded=0;exitX=0.75;exitY=0;exitDx=0;exitDy=0;entryX=0.5;entryY=1;entryDx=0;entryDy=0;" edge="1" parent="1" source="lhP6wnL_BwwjvoR07iWc-41" target="O87DbH4CyXOENve4v9fQ-42">
          <mxGeometry relative="1" as="geometry">
            <mxPoint x="430" y="460" as="sourcePoint" />
            <mxPoint x="432" y="388" as="targetPoint" />
          </mxGeometry>
        </mxCell>
        <mxCell id="O87DbH4CyXOENve4v9fQ-52" value="" style="endArrow=none;html=1;rounded=0;exitX=0.5;exitY=0;exitDx=0;exitDy=0;entryX=0.58;entryY=0.985;entryDx=0;entryDy=0;entryPerimeter=0;" edge="1" parent="1" source="O87DbH4CyXOENve4v9fQ-42" target="O87DbH4CyXOENve4v9fQ-38">
          <mxGeometry relative="1" as="geometry">
            <mxPoint x="440" y="390" as="sourcePoint" />
            <mxPoint x="442" y="318" as="targetPoint" />
          </mxGeometry>
        </mxCell>
        <mxCell id="O87DbH4CyXOENve4v9fQ-54" value="1" style="text;html=1;strokeColor=none;fillColor=none;align=center;verticalAlign=middle;whiteSpace=wrap;rounded=0;" vertex="1" parent="1">
          <mxGeometry x="390" y="320" width="30" height="10" as="geometry" />
        </mxCell>
        <mxCell id="O87DbH4CyXOENve4v9fQ-55" value="1" style="text;html=1;strokeColor=none;fillColor=none;align=center;verticalAlign=middle;whiteSpace=wrap;rounded=0;" vertex="1" parent="1">
          <mxGeometry x="425" y="390" width="30" height="10" as="geometry" />
        </mxCell>
        <mxCell id="O87DbH4CyXOENve4v9fQ-56" value="M" style="text;html=1;strokeColor=none;fillColor=none;align=center;verticalAlign=middle;whiteSpace=wrap;rounded=0;" vertex="1" parent="1">
          <mxGeometry x="320" y="260" width="30" height="10" as="geometry" />
        </mxCell>
        <mxCell id="O87DbH4CyXOENve4v9fQ-58" value="M" style="text;html=1;strokeColor=none;fillColor=none;align=center;verticalAlign=middle;whiteSpace=wrap;rounded=0;" vertex="1" parent="1">
          <mxGeometry x="415" y="450" width="30" height="10" as="geometry" />
        </mxCell>
      </root>
    </mxGraphModel>
  </diagram>
</mxfile>
